<svg width="31" height="31" viewBox="0 0 31 31" fill="none" xmlns="http://www.w3.org/2000/svg">
<path fill-rule="evenodd" clip-rule="evenodd" d="M15.027 1.59892C7.6154 1.59892 1.60592 7.6084 1.60592 15.02C1.60592 22.4316 7.6154 28.441 15.027 28.441C22.4386 28.441 28.448 22.4316 28.448 15.02C28.448 7.6084 22.4386 1.59892 15.027 1.59892ZM0.0269775 15.02C0.0269775 6.73524 6.74224 0.0199738 15.027 0.0199738C23.3117 0.0199738 30.027 6.73524 30.027 15.02C30.027 23.3047 23.3117 30.02 15.027 30.02C6.74224 30.02 0.0269775 23.3047 0.0269775 15.02Z" fill="#23232B"/>
<path fill-rule="evenodd" clip-rule="evenodd" d="M15.0263 7.91542C12.8458 7.91542 11.0789 9.68226 11.0789 11.8628C11.0789 14.0433 12.8458 15.8102 15.0263 15.8102C17.2068 15.8102 18.9737 14.0433 18.9737 11.8628C18.9737 9.68226 17.2068 7.91542 15.0263 7.91542ZM9.49998 11.8628C9.49998 8.81068 11.9742 6.33647 15.0263 6.33647C18.0784 6.33647 20.5526 8.81068 20.5526 11.8628C20.5526 14.9149 18.0784 17.3891 15.0263 17.3891C11.9742 17.3891 9.49998 14.9149 9.49998 11.8628Z" fill="#23232B"/>
<path fill-rule="evenodd" clip-rule="evenodd" d="M15.0272 21.3345C11.2298 21.3345 7.91241 23.3967 6.13767 26.4661L4.77031 25.6767C6.81662 22.1382 10.644 19.7556 15.0272 19.7556C19.4119 19.7556 23.2393 22.1382 25.2856 25.6767L23.9182 26.4661C22.1419 23.3967 18.8261 21.3345 15.0272 21.3345Z" fill="#23232B"/>
</svg>
