<svg width="31" height="31" viewBox="0 0 31 31" fill="none" xmlns="http://www.w3.org/2000/svg">
<path fill-rule="evenodd" clip-rule="evenodd" d="M15.027 1.59891C7.6154 1.59891 1.60592 7.60838 1.60592 15.02C1.60592 22.4315 7.6154 28.441 15.027 28.441C22.4386 28.441 28.448 22.4315 28.448 15.02C28.448 7.60838 22.4386 1.59891 15.027 1.59891ZM0.0269775 15.02C0.0269775 6.73522 6.74224 0.0199585 15.027 0.0199585C23.3117 0.0199585 30.027 6.73522 30.027 15.02C30.027 23.3047 23.3117 30.02 15.027 30.02C6.74224 30.02 0.0269775 23.3047 0.0269775 15.02Z" fill="#976415"/>
<path fill-rule="evenodd" clip-rule="evenodd" d="M15.0263 7.9154C12.8458 7.9154 11.0789 9.68225 11.0789 11.8628C11.0789 14.0433 12.8458 15.8101 15.0263 15.8101C17.2068 15.8101 18.9737 14.0433 18.9737 11.8628C18.9737 9.68225 17.2068 7.9154 15.0263 7.9154ZM9.49998 11.8628C9.49998 8.81067 11.9742 6.33646 15.0263 6.33646C18.0784 6.33646 20.5526 8.81067 20.5526 11.8628C20.5526 14.9149 18.0784 17.3891 15.0263 17.3891C11.9742 17.3891 9.49998 14.9149 9.49998 11.8628Z" fill="#976415"/>
<path fill-rule="evenodd" clip-rule="evenodd" d="M15.0272 21.3345C11.2298 21.3345 7.91241 23.3966 6.13767 26.4661L4.77031 25.6766C6.81662 22.1382 10.644 19.7556 15.0272 19.7556C19.4119 19.7556 23.2393 22.1382 25.2856 25.6766L23.9182 26.4661C22.1419 23.3966 18.8261 21.3345 15.0272 21.3345Z" fill="#976415"/>
</svg>
