<svg width="19" height="18" viewBox="0 0 19 18" fill="none" xmlns="http://www.w3.org/2000/svg">
<path fill-rule="evenodd" clip-rule="evenodd" d="M7.68226 0.954702C4.25033 0.954702 1.46845 3.73288 1.46845 7.16026C1.46845 10.5876 4.25033 13.3658 7.68226 13.3658C11.1142 13.3658 13.8961 10.5876 13.8961 7.16026C13.8961 3.73288 11.1142 0.954702 7.68226 0.954702ZM0.512482 7.16026C0.512482 3.20589 3.72263 0 7.68226 0C11.6419 0 14.852 3.20589 14.852 7.16026C14.852 11.1146 11.6419 14.3205 7.68226 14.3205C3.72263 14.3205 0.512482 11.1146 0.512482 7.16026Z" fill="black"/>
<path fill-rule="evenodd" clip-rule="evenodd" d="M12.8016 11.5958L18.5374 17.3241L17.8606 18L12.1248 12.2718L12.8016 11.5958Z" fill="black"/>
</svg>
