<svg width="28" height="28" viewBox="0 0 28 28" fill="none" xmlns="http://www.w3.org/2000/svg">
<path d="M9.17227 13.9723C9.17227 11.4591 11.2103 9.42127 13.7249 9.42127C16.2396 9.42127 18.2787 11.4591 18.2787 13.9723C18.2787 16.4855 16.2396 18.5233 13.7249 18.5233C11.2103 18.5233 9.17227 16.4855 9.17227 13.9723ZM6.7106 13.9723C6.7106 17.844 9.85091 20.9824 13.7249 20.9824C17.599 20.9824 20.7393 17.844 20.7393 13.9723C20.7393 10.1006 17.599 6.96216 13.7249 6.96216C9.85091 6.96216 6.7106 10.1006 6.7106 13.9723ZM19.3777 6.68421C19.3776 7.00822 19.4736 7.325 19.6536 7.59448C19.8336 7.86396 20.0896 8.07404 20.389 8.19815C20.6885 8.32226 21.0181 8.35484 21.3361 8.29175C21.6541 8.22867 21.9462 8.07276 22.1756 7.84374C22.4049 7.61472 22.5612 7.32287 22.6245 7.00511C22.6879 6.68735 22.6556 6.35794 22.5316 6.05854C22.4077 5.75915 22.1977 5.5032 21.9282 5.32309C21.6587 5.14297 21.3418 5.04676 21.0176 5.04663H21.0169C20.5824 5.04683 20.1656 5.21941 19.8583 5.52645C19.5509 5.83349 19.3781 6.2499 19.3777 6.68421ZM8.20622 25.0847C6.87441 25.0241 6.15053 24.8024 5.66947 24.615C5.03171 24.3669 4.57666 24.0714 4.09822 23.5939C3.61979 23.1164 3.32364 22.6621 3.07644 22.0247C2.88892 21.5441 2.66708 20.8205 2.60653 19.4894C2.54031 18.0504 2.52709 17.6181 2.52709 13.9724C2.52709 10.3267 2.5414 9.89559 2.60653 8.45536C2.66718 7.12435 2.89067 6.40211 3.07644 5.92014C3.32473 5.28275 3.62045 4.82798 4.09822 4.34983C4.576 3.87168 5.03061 3.57571 5.66947 3.32866C6.15031 3.14125 6.87441 2.91954 8.20622 2.85903C9.64611 2.79285 10.0786 2.77963 13.7249 2.77963C17.3712 2.77963 17.8042 2.79394 19.2453 2.85903C20.5771 2.91965 21.2998 3.143 21.782 3.32866C22.4198 3.57571 22.8748 3.87234 23.3533 4.34983C23.8317 4.82732 24.1268 5.28275 24.3751 5.92014C24.5626 6.40069 24.7844 7.12435 24.845 8.45536C24.9112 9.89559 24.9244 10.3267 24.9244 13.9724C24.9244 17.6181 24.9112 18.0492 24.845 19.4894C24.7843 20.8205 24.5614 21.5439 24.3751 22.0247C24.1268 22.6621 23.8311 23.1168 23.3533 23.5939C22.8755 24.0709 22.4198 24.3669 21.782 24.615C21.3012 24.8025 20.5771 25.0242 19.2453 25.0847C17.8054 25.1509 17.3729 25.1641 13.7249 25.1641C10.077 25.1641 9.64567 25.1509 8.20622 25.0847ZM8.09311 0.402989C6.63891 0.469174 5.64521 0.699619 4.77741 1.0371C3.87868 1.3856 3.11786 1.85316 2.35759 2.61177C1.59732 3.37038 1.13069 4.13195 0.781972 5.03014C0.444292 5.89797 0.213709 6.89052 0.147484 8.34385C0.080167 9.79948 0.0647583 10.2649 0.0647583 13.9723C0.0647583 17.6797 0.080167 18.1451 0.147484 19.6007C0.213709 21.0542 0.444292 22.0466 0.781972 22.9144C1.13069 23.8121 1.59743 24.5745 2.35759 25.3328C3.11775 26.0911 3.87868 26.558 4.77741 26.9075C5.64685 27.245 6.63891 27.4754 8.09311 27.5416C9.55038 27.6078 10.0153 27.6243 13.7249 27.6243C17.4346 27.6243 17.9002 27.6089 19.3567 27.5416C20.8111 27.4754 21.8041 27.245 22.6725 26.9075C23.5706 26.558 24.332 26.0914 25.0923 25.3328C25.8525 24.5742 26.3182 23.8121 26.6679 22.9144C27.0056 22.0466 27.2372 21.0541 27.3024 19.6007C27.3686 18.144 27.384 17.6797 27.384 13.9723C27.384 10.2649 27.3686 9.79948 27.3024 8.34385C27.2362 6.89041 27.0056 5.89742 26.6679 5.03014C26.3182 4.13249 25.8513 3.37158 25.0923 2.61177C24.3332 1.85196 23.5706 1.3856 22.6735 1.0371C21.8041 0.699619 20.811 0.468082 19.3578 0.402989C17.9013 0.336804 17.4357 0.320312 13.726 0.320312C10.0164 0.320312 9.55038 0.335712 8.09311 0.402989Z" fill="white"/>
</svg>
