<svg width="28" height="28" viewBox="0 0 28 28" fill="none" xmlns="http://www.w3.org/2000/svg">
<path d="M9.71249 14C9.71249 11.4868 11.7505 9.44898 14.2652 9.44898C16.7798 9.44898 18.8189 11.4868 18.8189 14C18.8189 16.5132 16.7798 18.551 14.2652 18.551C11.7505 18.551 9.71249 16.5132 9.71249 14ZM7.25082 14C7.25082 17.8717 10.3911 21.0101 14.2652 21.0101C18.1392 21.0101 21.2795 17.8717 21.2795 14C21.2795 10.1283 18.1392 6.98987 14.2652 6.98987C10.3911 6.98987 7.25082 10.1283 7.25082 14ZM19.9179 6.71192C19.9178 7.03593 20.0138 7.35271 20.1938 7.62219C20.3739 7.89167 20.6298 8.10175 20.9293 8.22586C21.2287 8.34997 21.5583 8.38255 21.8763 8.31946C22.1943 8.25638 22.4865 8.10047 22.7158 7.87145C22.9452 7.64243 23.1014 7.35058 23.1648 7.03282C23.2281 6.71506 23.1958 6.38565 23.0719 6.08625C22.9479 5.78686 22.7379 5.53091 22.4684 5.3508C22.1989 5.17068 21.882 5.07447 21.5578 5.07434H21.5572C21.1226 5.07454 20.7059 5.24712 20.3985 5.55416C20.0912 5.8612 19.9183 6.27761 19.9179 6.71192ZM8.74644 25.1124C7.41463 25.0518 6.69075 24.8301 6.20969 24.6428C5.57193 24.3946 5.11688 24.0991 4.63845 23.6216C4.16001 23.1441 3.86386 22.6898 3.61667 22.0524C3.42914 21.5718 3.2073 20.8482 3.14676 19.5172C3.08053 18.0781 3.06731 17.6458 3.06731 14.0001C3.06731 10.3544 3.08162 9.9233 3.14676 8.48307C3.20741 7.15206 3.43089 6.42982 3.61667 5.94785C3.86495 5.31046 4.16067 4.85569 4.63845 4.37754C5.11622 3.89939 5.57084 3.60342 6.20969 3.35637C6.69053 3.16896 7.41463 2.94725 8.74644 2.88674C10.1863 2.82056 10.6189 2.80734 14.2652 2.80734C17.9114 2.80734 18.3444 2.82165 19.7855 2.88674C21.1173 2.94736 21.84 3.17071 22.3222 3.35637C22.96 3.60342 23.4151 3.90005 23.8935 4.37754C24.3719 4.85503 24.667 5.31046 24.9153 5.94785C25.1028 6.4284 25.3246 7.15206 25.3852 8.48307C25.4514 9.9233 25.4646 10.3544 25.4646 14.0001C25.4646 17.6458 25.4514 18.0769 25.3852 19.5172C25.3245 20.8482 25.1016 21.5716 24.9153 22.0524C24.667 22.6898 24.3713 23.1445 23.8935 23.6216C23.4157 24.0986 22.96 24.3946 22.3222 24.6428C21.8414 24.8302 21.1173 25.0519 19.7855 25.1124C18.3456 25.1786 17.9131 25.1918 14.2652 25.1918C10.6172 25.1918 10.1859 25.1786 8.74644 25.1124ZM8.63334 0.430699C7.17913 0.496884 6.18543 0.727329 5.31763 1.06481C4.4189 1.41331 3.65808 1.88087 2.89781 2.63948C2.13754 3.39809 1.67091 4.15966 1.32219 5.05785C0.984515 5.92568 0.753931 6.91823 0.687706 8.37156C0.620389 9.82719 0.60498 10.2926 0.60498 14C0.60498 17.7074 0.620389 18.1728 0.687706 19.6284C0.753931 21.0819 0.984515 22.0743 1.32219 22.9422C1.67091 23.8398 2.13765 24.6022 2.89781 25.3605C3.65797 26.1188 4.4189 26.5857 5.31763 26.9352C6.18707 27.2727 7.17913 27.5031 8.63334 27.5693C10.0906 27.6355 10.5555 27.652 14.2652 27.652C17.9748 27.652 18.4405 27.6366 19.897 27.5693C21.3513 27.5031 22.3443 27.2727 23.2127 26.9352C24.1109 26.5857 24.8722 26.1191 25.6325 25.3605C26.3928 24.6019 26.8584 23.8398 27.2081 22.9422C27.5458 22.0743 27.7775 21.0818 27.8426 19.6284C27.9088 18.1717 27.9242 17.7074 27.9242 14C27.9242 10.2926 27.9088 9.82719 27.8426 8.37156C27.7764 6.91812 27.5458 5.92513 27.2081 5.05785C26.8584 4.1602 26.3916 3.39929 25.6325 2.63948C24.8734 1.87967 24.1109 1.41331 23.2138 1.06481C22.3443 0.727329 21.3512 0.495791 19.8981 0.430699C18.4416 0.364514 17.9759 0.348022 14.2662 0.348022C10.5566 0.348022 10.0906 0.363422 8.63334 0.430699Z" fill="#666666"/>
</svg>
