<svg width="160" height="48" viewBox="0 0 160 48" fill="none" xmlns="http://www.w3.org/2000/svg">
<path d="M62.3034 10.7674V7.99221C67.463 7.99221 72.6225 7.99301 77.7832 7.99301V10.7674H62.3034ZM20.3205 10.7674V7.99221C25.48 7.99221 30.6396 7.99301 35.8003 7.99301V10.7674H20.3205ZM12.3668 10.7666H3.41168V14.8429L12.3668 14.8641C12.9925 14.8641 13.4722 14.7075 13.8063 14.3946C14.1403 14.0813 14.3077 13.555 14.3077 12.815C14.3077 12.0613 14.1403 11.5313 13.8063 11.2254C13.4722 10.9192 12.9925 10.7666 12.3668 10.7666ZM20.3205 16.9128V14.1375C25.48 14.1375 30.6396 14.1383 35.8003 14.1383V16.9128H20.3205ZM62.3034 16.9128V14.1375C67.463 14.1375 72.6225 14.1383 77.7832 14.1383V16.9128H62.3034ZM100.619 23.2513V10.7663C95.7003 10.7651 90.7847 10.7552 85.8638 10.7464C85.253 10.7464 84.7765 10.8848 84.4355 11.1623C84.1046 11.4316 83.9338 11.8581 83.9243 12.4423C83.9338 13.0265 84.1046 13.4531 84.4355 13.7224C84.7765 13.9999 85.253 14.1383 85.8638 14.1383H93.4976C95.0752 14.1383 96.3011 14.5263 97.1755 15.3016C98.0393 16.0678 98.4763 17.1991 98.4866 18.6945C98.4763 20.1761 98.0393 21.3032 97.1755 22.0767C96.3013 22.8589 95.0752 23.25 93.4976 23.25C80.9677 23.25 68.4382 23.2513 55.9067 23.2513V12.2605L51.0666 15.5042V23.2513H47.6549V15.5042L42.7935 12.2605V23.2513C33.1001 23.2513 23.4047 23.2513 13.7101 23.2513L10.4477 17.6387H3.41153V23.2513H0V7.99221H12.7721C14.3499 7.99221 15.5758 8.39065 16.4501 9.18738C17.3243 9.98394 17.7611 11.1935 17.7611 12.8151C17.7611 14.1953 17.4415 15.2767 16.8018 16.0593C16.1622 16.8418 15.2527 17.3327 14.0728 17.5321L15.8843 20.4769L39.3819 20.4777V7.99221H42.2389L49.2965 12.9433H49.4034L56.4608 7.99221H59.3181V20.4769C70.5982 20.4802 81.8582 20.4775 93.1344 20.497C93.7601 20.497 94.2397 20.3514 94.5739 20.0597C94.8987 19.7762 95.0653 19.3208 95.0744 18.6945C95.0653 18.0677 94.8987 17.6131 94.5739 17.3289C94.2397 17.0373 93.7601 16.8915 93.1344 16.8915H85.5014C83.9235 16.8915 82.6972 16.511 81.823 15.7498C80.9596 14.9984 80.5226 13.8954 80.5121 12.4423C80.5226 10.9893 80.9596 9.88649 81.823 9.13489C82.6971 8.37369 83.9235 7.99317 85.5014 7.99317C91.6774 7.99269 97.8536 7.99221 104.03 7.99221V20.4769C109.13 20.4769 114.223 20.4772 119.322 20.4772V23.2513C113.087 23.2513 106.853 23.2513 100.619 23.2513Z" fill="white"/>
<path fill-rule="evenodd" clip-rule="evenodd" d="M126.439 4.99332C129.312 4.99332 131.918 6.13584 133.83 7.99124L140.981 7.9922L146.631 20.5836H146.909L156.155 0C157.389 0 158.622 0 159.856 0C156.372 7.75041 152.887 15.501 149.403 23.2512H144.137L138.52 10.7666H135.888C136.636 12.2216 137.058 13.8722 137.058 15.6216C137.058 21.4912 132.304 26.2498 126.44 26.2498C120.575 26.2498 115.821 21.4912 115.821 15.6216C115.821 9.7519 120.575 4.99332 126.439 4.99332ZM126.439 12.8585C127.964 12.8585 129.2 14.0957 129.2 15.6216C129.2 17.1474 127.964 18.3846 126.439 18.3846C124.915 18.3846 123.679 17.1474 123.679 15.6216C123.679 14.0957 124.915 12.8585 126.439 12.8585ZM126.439 7.75633C130.779 7.75633 134.298 11.278 134.298 15.6216C134.298 19.9651 130.779 23.4868 126.439 23.4868C122.1 23.4868 118.581 19.9651 118.581 15.6216C118.581 11.278 122.1 7.75633 126.439 7.75633Z" fill="white"/>
<path fill-rule="evenodd" clip-rule="evenodd" d="M0.000312338 30.5995H159.856V32.8394H0.000312338V30.5995Z" fill="white"/>
<path d="M1.0542 37.1894H0.000163605V45.2735H1.0542V37.1894ZM5.05694 39.8446C3.47004 39.8446 2.25021 41.0298 2.25021 42.5589C2.25021 44.1946 3.42256 45.38 5.05694 45.38C6.7623 45.38 7.93465 44.2421 7.93465 42.5589C7.93465 40.9824 6.72681 39.8446 5.05694 39.8446ZM5.04511 40.7927C6.09899 40.7927 6.85711 41.5396 6.85711 42.5708C6.85711 43.7205 6.1583 44.4318 5.04511 44.4318C4.02672 44.4318 3.32792 43.685 3.32792 42.5589C3.32792 41.5396 4.05038 40.7927 5.04511 40.7927ZM13.3467 39.9511H11.1558C9.72283 39.9511 8.83457 40.6506 8.83457 41.7884C8.83457 42.1797 8.92938 42.5116 9.11883 42.7841C9.32027 43.0686 9.61635 43.2939 10.0071 43.4598V43.4835C9.49773 43.6021 9.16631 43.8984 9.16631 44.2421C9.16631 44.4791 9.3321 44.6926 9.69917 44.9177C8.77558 45.143 8.36103 45.6053 8.36103 46.3876C8.36103 47.3241 9.37942 47.9997 10.8124 47.9997C12.3876 47.9997 13.323 47.3596 13.323 46.3046C13.323 45.629 12.9203 45.0481 11.7834 44.823C10.7177 44.6095 10.161 44.4318 10.161 44.1354C10.161 43.507 11.6058 43.8864 12.3164 43.1279C12.5652 42.879 12.814 42.3693 12.814 41.9307C12.814 41.4803 12.6718 41.1839 12.2573 40.7691H13.3467V39.9511ZM11.8664 41.8003C11.8664 42.3813 11.44 42.7959 10.848 42.7959C10.2084 42.7959 9.78214 42.4048 9.78214 41.8241C9.78214 41.3025 10.2558 40.864 10.8362 40.864C11.3929 40.864 11.8664 41.2908 11.8664 41.8003ZM12.3046 46.3876C12.3046 46.8736 11.7598 47.158 10.8362 47.158C9.87694 47.158 9.35576 46.8735 9.35576 46.3403C9.35576 45.866 9.85328 45.5343 10.5638 45.5343C11.2151 45.5343 12.3046 45.7121 12.3046 46.3876ZM15.2416 39.9511H14.1876V45.2733H15.2416V39.9511ZM15.3483 38.3391C15.3483 37.9953 15.064 37.7107 14.7204 37.7107C14.377 37.7107 14.0928 37.9953 14.0928 38.3391C14.0928 38.6828 14.377 38.9674 14.7204 38.9674C15.064 38.9674 15.3483 38.6828 15.3483 38.3391ZM19.8484 40.2832C19.2917 39.9868 18.7827 39.8446 18.2851 39.8446C17.2194 39.8446 16.5324 40.3897 16.5324 41.2906C16.5324 42.7249 19.0193 43.1161 19.0193 43.8509C19.0193 44.2303 18.664 44.4318 18.2378 44.4554C17.8114 44.4554 17.1838 44.2303 16.4968 43.756V44.8939C17.1838 45.2496 17.693 45.38 18.3444 45.38C19.351 45.38 20.0971 44.7516 20.0971 43.8154C20.0971 43.27 19.7774 42.9026 18.901 42.3218C17.9655 41.7764 17.6101 41.4921 17.6101 41.2551C17.6101 40.9706 17.8826 40.769 18.309 40.769C18.6998 40.769 19.2564 40.9349 19.8485 41.3262L19.8484 40.2832ZM22.5485 38.8488L20.5707 40.781V40.8996H21.4944V43.7088C21.4944 44.6689 22.0748 45.3802 23.2234 45.3802C23.5669 45.3802 24.1352 45.2261 24.5024 45.0245V44.0407C24.076 44.3015 23.6853 44.4319 23.3063 44.4319C22.9983 44.4319 22.5485 44.2542 22.5485 43.6259V40.8997H24.2302V39.9515H22.5485V38.8488ZM26.3381 39.9511H25.284V45.2733H26.3381V39.9511ZM26.4447 38.3391C26.4447 37.9953 26.1605 37.7107 25.8169 37.7107C25.4735 37.7107 25.1892 37.9953 25.1892 38.3391C25.1892 38.6828 25.4735 38.9674 25.8169 38.9674C26.1605 38.9674 26.4447 38.6828 26.4447 38.3391ZM31.7619 40.212C31.2526 39.9868 30.8382 39.8446 30.2224 39.8446C28.6118 39.8446 27.5932 40.9586 27.5932 42.713C27.5932 44.2777 28.7064 45.38 30.2935 45.38C30.8502 45.38 31.525 45.2378 31.8804 45.0718V44.0287C31.3474 44.2658 30.9212 44.3844 30.4711 44.3844C29.3816 44.3844 28.6709 43.7205 28.6709 42.6181C28.6709 41.5396 29.3343 40.8163 30.2935 40.8163C30.7554 40.8163 31.1579 40.9349 31.7619 41.338V40.212ZM40.2413 40.212C39.7319 39.9868 39.3175 39.8446 38.7017 39.8446C37.0911 39.8446 36.0726 40.9586 36.0726 42.713C36.0726 44.2777 37.1858 45.38 38.7728 45.38C39.3295 45.38 40.0043 45.2378 40.3597 45.0718V44.0287C39.8267 44.2658 39.4005 44.3844 38.9504 44.3844C37.8609 44.3844 37.1503 43.7205 37.1503 42.6181C37.1503 41.5396 37.8136 40.8163 38.7728 40.8163C39.2347 40.8163 39.6373 40.9349 40.2413 41.338V40.212ZM44.0072 39.8446C42.4203 39.8446 41.2005 41.0298 41.2005 42.5589C41.2005 44.1946 42.3728 45.38 44.0072 45.38C45.7126 45.38 46.8849 44.2421 46.8849 42.5589C46.8849 40.9824 45.6771 39.8446 44.0072 39.8446ZM43.9954 40.7927C45.0493 40.7927 45.8074 41.5396 45.8074 42.5708C45.8074 43.7205 45.1086 44.4318 43.9954 44.4318C42.977 44.4318 42.2782 43.685 42.2782 42.5589C42.2782 41.5396 43.0007 40.7927 43.9954 40.7927ZM48.01 39.9511V45.2733H49.0638V41.4092C49.5022 40.8994 49.8573 40.7335 50.3903 40.7335C50.9115 40.7335 51.3495 41.1009 51.3495 41.9662V45.2733H52.4034V41.4092C52.7825 41.018 53.2442 40.7216 53.5878 40.7335C54.1918 40.7335 54.689 41.1721 54.689 41.9781V45.2733H55.743V41.9305C55.743 40.6741 55.056 39.8444 53.9783 39.8444C53.2205 39.8444 52.6639 40.283 52.202 40.8043C51.8466 40.1761 51.2901 39.8444 50.6149 39.8444C50.1176 39.8444 49.6084 40.1051 49.0635 40.6502V39.9508L48.01 39.9511ZM58.171 45.143C58.5737 45.309 58.8935 45.3802 59.2369 45.3802C60.8119 45.3802 61.937 44.2541 61.937 42.6538C61.937 40.8996 60.8831 39.9513 58.9408 39.9513H57.117V47.9998H58.1708L58.171 45.143ZM58.171 40.8996H59.1302C60.1013 40.8996 60.8593 41.5398 60.8593 42.642C60.8593 43.6733 60.1486 44.4319 59.1657 44.4319C58.8341 44.4319 58.4907 44.3489 58.171 44.1948V40.8996ZM67.2308 44.3252C66.9939 44.5031 66.7806 44.6097 66.6741 44.6097C66.5439 44.6097 66.4727 44.5387 66.4727 44.337V41.599C66.4727 40.3899 65.6201 39.8447 64.5422 39.8447C63.7726 39.8447 63.1923 40.0817 62.7777 40.5678V41.7176C63.2871 41.113 63.8791 40.8405 64.4594 40.8405C65.0989 40.8405 65.4187 41.1132 65.4187 41.7768V42.0613L64.4831 42.3933C63.4054 42.7726 62.6711 43.1046 62.6711 44.0765C62.6711 44.764 63.1923 45.3803 63.9737 45.3803C64.4594 45.3803 64.9448 45.2024 65.4068 44.835C65.5015 45.2144 65.7502 45.3803 66.212 45.3803C66.5437 45.3803 66.745 45.2855 67.2305 44.9654L67.2308 44.3252ZM65.4188 44.1948C65.1346 44.4674 64.8265 44.6334 64.4951 44.6334C64.0569 44.6334 63.7373 44.3252 63.7373 43.8866C63.7373 43.2584 64.5187 42.9503 65.419 42.642L65.4188 44.1948ZM69.1966 39.9513H68.1426V45.2735H69.1966V41.4567C69.694 40.8996 70.0611 40.6863 70.5229 40.6863C71.1626 40.6863 71.565 41.1961 71.565 41.9784V45.2736H72.619V41.9902C72.619 40.5322 71.8137 39.8447 70.807 39.8447C70.2149 39.8447 69.6228 40.1411 69.2201 40.6506H69.1965L69.1966 39.9513ZM78.5287 39.9513H77.3444L75.9707 42.9503L74.5376 39.9513H73.3416L75.4024 44.1356L73.5904 47.9997H74.7627L78.5287 39.9513Z" fill="white"/>
</svg>
