<svg width="137" height="136" viewBox="0 0 137 136" fill="none" xmlns="http://www.w3.org/2000/svg">
<g opacity="0.75" filter="url(#filter0_d_128_47)">
<circle cx="68.5" cy="64" r="60" fill="white"/>
<circle cx="68.5" cy="64" r="59" stroke="#C8B68E" stroke-width="2"/>
</g>
<path d="M73.5566 61.025C77.5433 61.675 80.5983 63.17 82.7216 65.51C84.8449 67.8067 85.9066 70.6667 85.9066 74.09C85.9066 76.7333 85.2133 79.1817 83.8266 81.435C82.4399 83.645 80.3166 85.4217 77.4566 86.765C74.6399 88.1083 71.1733 88.78 67.0566 88.78C63.8499 88.78 60.6866 88.3683 57.5666 87.545C54.4899 86.6783 51.8683 85.465 49.7016 83.905L53.7966 75.845C55.5299 77.145 57.5233 78.1633 59.7766 78.9C62.0733 79.5933 64.4133 79.94 66.7966 79.94C69.4399 79.94 71.5199 79.4417 73.0366 78.445C74.5533 77.405 75.3116 75.9533 75.3116 74.09C75.3116 70.3633 72.4733 68.5 66.7966 68.5H61.9866V61.545L71.3466 50.95H51.9766V42.5H83.8266V49.325L73.5566 61.025Z" fill="#666666"/>
<defs>
<filter id="filter0_d_128_47" x="0.5" y="0" width="136" height="136" filterUnits="userSpaceOnUse" color-interpolation-filters="sRGB">
<feFlood flood-opacity="0" result="BackgroundImageFix"/>
<feColorMatrix in="SourceAlpha" type="matrix" values="0 0 0 0 0 0 0 0 0 0 0 0 0 0 0 0 0 0 127 0" result="hardAlpha"/>
<feOffset dy="4"/>
<feGaussianBlur stdDeviation="4"/>
<feComposite in2="hardAlpha" operator="out"/>
<feColorMatrix type="matrix" values="0 0 0 0 0.592157 0 0 0 0 0.392157 0 0 0 0 0.0823529 0 0 0 0.25 0"/>
<feBlend mode="normal" in2="BackgroundImageFix" result="effect1_dropShadow_128_47"/>
<feBlend mode="normal" in="SourceGraphic" in2="effect1_dropShadow_128_47" result="shape"/>
</filter>
</defs>
</svg>
