<svg width="137" height="136" viewBox="0 0 137 136" fill="none" xmlns="http://www.w3.org/2000/svg">
<g opacity="0.75" filter="url(#filter0_d_128_224)">
<circle cx="68.5" cy="64" r="60" fill="white"/>
<circle cx="68.5" cy="64" r="59" stroke="#C8B68E" stroke-width="2"/>
</g>
<path d="M72.2466 59.465C75.15 59.465 77.7933 60.05 80.1766 61.22C82.56 62.39 84.445 64.0583 85.8316 66.225C87.2183 68.3483 87.9116 70.8183 87.9116 73.635C87.9116 76.6683 87.1533 79.3333 85.6366 81.63C84.12 83.9267 82.04 85.7033 79.3966 86.96C76.7966 88.1733 73.8933 88.78 70.6866 88.78C64.3166 88.78 59.3333 86.83 55.7366 82.93C52.14 79.03 50.3416 73.4617 50.3416 66.225C50.3416 61.0683 51.3166 56.6483 53.2666 52.965C55.2166 49.2817 57.925 46.4867 61.3916 44.58C64.9016 42.6733 68.9533 41.72 73.5466 41.72C75.9733 41.72 78.2916 42.0017 80.5016 42.565C82.755 43.085 84.6616 43.8433 86.2216 44.84L82.3216 52.575C80.0683 51.0583 77.23 50.3 73.8066 50.3C69.95 50.3 66.895 51.4267 64.6416 53.68C62.3883 55.9333 61.175 59.205 61.0016 63.495C63.6883 60.8083 67.4366 59.465 72.2466 59.465ZM70.1016 80.915C72.355 80.915 74.175 80.3083 75.5616 79.095C76.9916 77.8817 77.7066 76.235 77.7066 74.155C77.7066 72.075 76.9916 70.4283 75.5616 69.215C74.175 67.9583 72.3116 67.33 69.9716 67.33C67.675 67.33 65.79 67.98 64.3166 69.28C62.8433 70.5367 62.1066 72.1617 62.1066 74.155C62.1066 76.1483 62.8216 77.7733 64.2516 79.03C65.6816 80.2867 67.6316 80.915 70.1016 80.915Z" fill="#666666"/>
<defs>
<filter id="filter0_d_128_224" x="0.5" y="0" width="136" height="136" filterUnits="userSpaceOnUse" color-interpolation-filters="sRGB">
<feFlood flood-opacity="0" result="BackgroundImageFix"/>
<feColorMatrix in="SourceAlpha" type="matrix" values="0 0 0 0 0 0 0 0 0 0 0 0 0 0 0 0 0 0 127 0" result="hardAlpha"/>
<feOffset dy="4"/>
<feGaussianBlur stdDeviation="4"/>
<feComposite in2="hardAlpha" operator="out"/>
<feColorMatrix type="matrix" values="0 0 0 0 0.592157 0 0 0 0 0.392157 0 0 0 0 0.0823529 0 0 0 0.25 0"/>
<feBlend mode="normal" in2="BackgroundImageFix" result="effect1_dropShadow_128_224"/>
<feBlend mode="normal" in="SourceGraphic" in2="effect1_dropShadow_128_224" result="shape"/>
</filter>
</defs>
</svg>
