<svg width="28" height="28" viewBox="0 0 28 28" fill="none" xmlns="http://www.w3.org/2000/svg">
<path fill-rule="evenodd" clip-rule="evenodd" d="M27.6255 14C27.6255 21.5443 21.5096 27.6602 13.9653 27.6602C6.42105 27.6602 0.305176 21.5443 0.305176 14C0.305176 6.45572 6.42105 0.339844 13.9653 0.339844C21.5096 0.339844 27.6255 6.45572 27.6255 14ZM15.2744 9.80844C12.9276 10.8221 6.16106 13.7008 6.16106 13.7008C4.55744 14.3496 5.4961 14.9577 5.4961 14.9577C5.4961 14.9577 6.86506 15.4443 8.03849 15.8092C9.21186 16.1741 9.83769 15.7687 9.83769 15.7687C9.83769 15.7687 12.5756 13.9036 15.3526 11.9168C17.3082 10.5383 16.8389 11.6735 16.3695 12.1601C15.3526 13.2143 13.6707 14.8767 12.2627 16.2147C11.6369 16.7823 11.9498 17.2689 12.2236 17.5121C13.0199 18.2106 14.8953 19.4809 15.7468 20.0576C15.9827 20.2174 16.14 20.3239 16.174 20.3503C16.3695 20.5126 17.4647 21.2423 18.1296 21.0802C18.7945 20.918 18.8728 19.9854 18.8728 19.9854C18.8728 19.9854 19.3812 16.6607 19.8506 13.6197C19.9375 13.0227 20.0245 12.4381 20.1055 11.8931C20.3162 10.4764 20.4873 9.32637 20.5155 8.91643C20.6329 7.5379 19.2248 8.10551 19.2248 8.10551C19.2248 8.10551 16.174 9.40301 15.2744 9.80844Z" fill="#666666"/>
</svg>
