<svg width="28" height="28" viewBox="0 0 28 28" fill="none" xmlns="http://www.w3.org/2000/svg">
<path fill-rule="evenodd" clip-rule="evenodd" d="M27.4814 13.6602C27.4814 21.2045 21.3655 27.3203 13.8212 27.3203C6.27689 27.3203 0.161011 21.2045 0.161011 13.6602C0.161011 6.11588 6.27689 0 13.8212 0C21.3655 0 27.4814 6.11588 27.4814 13.6602ZM15.1302 9.46859C12.7835 10.4823 6.0169 13.361 6.0169 13.361C4.41328 14.0097 5.35194 14.6179 5.35194 14.6179C5.35194 14.6179 6.72089 15.1045 7.89432 15.4693C9.0677 15.8343 9.69352 15.4288 9.69352 15.4288C9.69352 15.4288 12.4314 13.5637 15.2084 11.577C17.1641 10.1984 16.6947 11.3337 16.2254 11.8203C15.2084 12.8745 13.5266 14.5368 12.1185 15.8748C11.4927 16.4425 11.8056 16.929 12.0794 17.1723C12.8757 17.8707 14.7511 19.141 15.6026 19.7177C15.8386 19.8775 15.9959 19.9841 16.0298 20.0105C16.2254 20.1727 17.3206 20.9025 17.9855 20.7403C18.6504 20.5781 18.7286 19.6456 18.7286 19.6456C18.7286 19.6456 19.2371 16.3208 19.7065 13.2799C19.7934 12.6828 19.8803 12.0983 19.9614 11.5532C20.1721 10.1365 20.3431 8.98653 20.3714 8.57659C20.4887 7.19806 19.0806 7.76566 19.0806 7.76566C19.0806 7.76566 16.0298 9.06316 15.1302 9.46859Z" fill="white"/>
</svg>
