<svg width="30" height="38" viewBox="0 0 30 38" fill="none" xmlns="http://www.w3.org/2000/svg">
<path fill-rule="evenodd" clip-rule="evenodd" d="M12.2271 0.730301C13.6471 -0.243432 15.5198 -0.243435 16.9398 0.7303L28.2616 8.49382C29.2105 9.14451 29.4523 10.4413 28.8016 11.3902C28.1509 12.3391 26.8541 12.5809 25.9052 11.9302L14.5835 4.16667L3.26172 11.9302C2.31279 12.5809 1.01604 12.3391 0.365347 11.3902C-0.285348 10.4413 -0.0435834 9.14451 0.905343 8.49382L12.2271 0.730301Z" fill="#826E4F"/>
<path fill-rule="evenodd" clip-rule="evenodd" d="M12.2272 13.1113C13.6472 12.1375 15.5199 12.1375 16.94 13.1113L28.2617 20.8748C29.2106 21.5255 29.4524 22.8222 28.8017 23.7711C28.151 24.7201 26.8543 24.9618 25.9053 24.3111L14.5836 16.5476L3.26184 24.3111C2.31292 24.9618 1.01617 24.7201 0.365474 23.7711C-0.285221 22.8222 -0.0434563 21.5255 0.90547 20.8748L12.2272 13.1113Z" fill="#826E4F"/>
<path fill-rule="evenodd" clip-rule="evenodd" d="M12.2271 25.4922C13.6471 24.5185 15.5198 24.5185 16.9398 25.4922L28.2616 33.2557C29.2105 33.9064 29.4523 35.2032 28.8016 36.1521C28.1509 37.101 26.8541 37.3428 25.9052 36.6921L14.5835 28.9286L3.26172 36.6921C2.31279 37.3428 1.01604 37.101 0.365347 36.1521C-0.285348 35.2032 -0.0435834 33.9064 0.905343 33.2557L12.2271 25.4922Z" fill="#826E4F"/>
</svg>
