<svg width="24" height="20" viewBox="0 0 24 20" fill="none" xmlns="http://www.w3.org/2000/svg">
<path d="M23.6485 2.65474C22.8926 2.98006 22.0979 3.20659 21.2841 3.32874C21.6645 3.26352 22.2244 2.57865 22.4473 2.30144C22.7858 1.88329 23.0438 1.40595 23.2082 0.89365C23.2082 0.855602 23.2463 0.801247 23.2082 0.77407C23.1891 0.763603 23.1676 0.758119 23.1457 0.758119C23.1239 0.758119 23.1024 0.763603 23.0832 0.77407C22.1995 1.25262 21.259 1.61786 20.2839 1.86116C20.25 1.87155 20.2138 1.87248 20.1793 1.86386C20.1448 1.85524 20.1134 1.8374 20.0883 1.81225C20.0124 1.72187 19.9307 1.63653 19.8437 1.55678C19.446 1.20045 18.9948 0.90882 18.5065 0.692538C17.8475 0.422165 17.1357 0.305072 16.4248 0.350103C15.735 0.393667 15.0615 0.578685 14.4462 0.89365C13.8404 1.22572 13.3079 1.67684 12.8808 2.21991C12.4316 2.77886 12.1072 3.42755 11.9296 4.12232C11.7832 4.78319 11.7665 5.46623 11.8807 6.13345C11.8807 6.24759 11.8807 6.2639 11.7829 6.24759C7.90737 5.67687 4.72761 4.30169 2.12946 1.35023C2.01531 1.21978 1.95552 1.21978 1.86312 1.35023C0.732542 3.06784 1.28152 5.78558 2.69475 7.12814C2.88499 7.30751 3.08067 7.48144 3.28721 7.64451C2.63926 7.59851 2.00713 7.42292 1.42828 7.12814C1.31957 7.05748 1.25978 7.09553 1.25435 7.22598C1.23894 7.40683 1.23894 7.58867 1.25435 7.76952C1.36776 8.63626 1.70934 9.45733 2.24415 10.1488C2.77896 10.8402 3.48781 11.3772 4.29821 11.7048C4.49577 11.7894 4.70162 11.8532 4.91242 11.895C4.31257 12.0131 3.69736 12.0315 3.09154 11.9494C2.96109 11.9222 2.91217 11.9929 2.96109 12.1179C3.7601 14.2921 5.49402 14.9552 6.76592 15.3248C6.93985 15.352 7.11379 15.352 7.30946 15.3955C7.30946 15.3955 7.30946 15.3955 7.27685 15.4281C6.9018 16.113 5.38531 16.575 4.68957 16.8142C3.41966 17.2703 2.06571 17.4446 0.721671 17.3251C0.509687 17.2925 0.460768 17.2979 0.406413 17.3251C0.352058 17.3523 0.406413 17.4121 0.466203 17.4664C0.737977 17.6458 1.00975 17.8034 1.2924 17.9556C2.13383 18.4146 3.0234 18.7791 3.94491 19.0427C8.71725 20.3581 14.0875 19.3906 17.6695 15.8303C20.4851 13.0365 21.4743 9.18275 21.4743 5.32356C21.4743 5.1768 21.6537 5.08984 21.757 5.01374C22.4693 4.45872 23.0973 3.80325 23.6213 3.06784C23.7121 2.95822 23.7586 2.81864 23.7518 2.67649C23.7518 2.59495 23.7518 2.61126 23.6485 2.65474Z" fill="white"/>
</svg>
