<svg width="25" height="20" viewBox="0 0 25 20" fill="none" xmlns="http://www.w3.org/2000/svg">
<path d="M24.1888 2.68242C23.4329 3.00774 22.6382 3.23427 21.8243 3.35642C22.2048 3.2912 22.7647 2.60633 22.9875 2.32912C23.3261 1.91097 23.5841 1.43363 23.7485 0.92133C23.7485 0.883281 23.7866 0.828926 23.7485 0.801749C23.7293 0.791283 23.7078 0.785798 23.686 0.785798C23.6642 0.785798 23.6427 0.791283 23.6235 0.801749C22.7398 1.2803 21.7993 1.64554 20.8242 1.88884C20.7902 1.89923 20.7541 1.90016 20.7196 1.89154C20.6851 1.88292 20.6536 1.86508 20.6285 1.83992C20.5526 1.74955 20.4709 1.66421 20.3839 1.58446C19.9862 1.22813 19.535 0.936499 19.0468 0.720217C18.3878 0.449844 17.6759 0.332752 16.965 0.377782C16.2752 0.421346 15.6018 0.606364 14.9865 0.92133C14.3807 1.25339 13.8482 1.70452 13.4211 2.24759C12.9719 2.80654 12.6475 3.45523 12.4699 4.15C12.3234 4.81087 12.3068 5.49391 12.421 6.16113C12.421 6.27527 12.421 6.29158 12.3231 6.27527C8.44765 5.70455 5.2679 4.32937 2.66974 1.37791C2.5556 1.24746 2.49581 1.24746 2.4034 1.37791C1.27282 3.09552 1.82181 5.81326 3.23503 7.15582C3.42527 7.33519 3.62095 7.50912 3.8275 7.67219C3.17954 7.62619 2.54741 7.4506 1.96857 7.15582C1.85986 7.08516 1.80007 7.1232 1.79463 7.25366C1.77922 7.43451 1.77922 7.61635 1.79463 7.7972C1.90804 8.66394 2.24962 9.48501 2.78443 10.1764C3.31924 10.8679 4.02809 11.4049 4.8385 11.7325C5.03605 11.8171 5.2419 11.8809 5.4527 11.9227C4.85286 12.0408 4.23764 12.0592 3.63182 11.9771C3.50137 11.9499 3.45245 12.0206 3.50137 12.1456C4.30038 14.3198 6.0343 14.9829 7.3062 15.3525C7.48014 15.3797 7.65407 15.3797 7.84975 15.4232C7.84975 15.4232 7.84975 15.4232 7.81713 15.4558C7.44209 16.1407 5.92559 16.6027 5.22985 16.8418C3.95994 17.298 2.60599 17.4723 1.26195 17.3528C1.04997 17.3202 1.00105 17.3256 0.946696 17.3528C0.892342 17.3799 0.946696 17.4397 1.00649 17.4941C1.27826 17.6735 1.55003 17.8311 1.83268 17.9833C2.67411 18.4422 3.56368 18.8068 4.48519 19.0704C9.25753 20.3858 14.6278 19.4182 18.2098 15.858C21.0253 13.0642 22.0146 9.21043 22.0146 5.35124C22.0146 5.20448 22.194 5.11752 22.2972 5.04142C23.0096 4.4864 23.6376 3.83093 24.1616 3.09552C24.2524 2.9859 24.2989 2.84632 24.2921 2.70417C24.2921 2.62263 24.2921 2.63894 24.1888 2.68242Z" fill="#666666"/>
</svg>
