<svg width="28" height="28" viewBox="0 0 28 28" fill="none" xmlns="http://www.w3.org/2000/svg">
<path d="M1.91927 2.26678C0 4.18617 0 7.27566 0 13.4539V14.5461C0 20.7244 0 23.8139 1.91927 25.7332C3.83867 27.6525 6.92816 27.6525 13.1064 27.6525H14.1986C20.3769 27.6525 23.4664 27.6525 25.3857 25.7332C27.305 23.8139 27.305 20.7244 27.305 14.5461V13.4539C27.305 7.2756 27.305 4.18611 25.3857 2.26678C23.4664 0.347504 20.3769 0.347504 14.1986 0.347504H13.1064C6.92809 0.347504 3.83861 0.347504 1.91927 2.26678ZM4.60772 8.65286H7.72506C7.82745 13.8635 10.1256 16.0707 11.9459 16.5258V8.65279H14.8812V13.1467C16.6788 12.9533 18.5674 10.9055 19.2045 8.65279H22.1398C21.8996 9.82107 21.421 10.9272 20.7339 11.9021C20.0468 12.877 19.166 13.6996 18.1464 14.3186C19.2848 14.8837 20.2902 15.684 21.0963 16.6666C21.9024 17.6492 22.4907 18.7916 22.8224 20.0185H19.5913C19.2936 18.9528 18.6877 17.9988 17.8498 17.2762C17.0118 16.5537 15.9791 16.0947 14.8812 15.9569V20.0185H14.5285C8.30529 20.0185 4.75564 15.7521 4.60772 8.65279V8.65286Z" fill="#666666"/>
</svg>
