<svg width="29" height="28" viewBox="0 0 29 28" fill="none" xmlns="http://www.w3.org/2000/svg">
<path d="M2.77529 1.92696C0.856018 3.84636 0.856018 6.93585 0.856018 13.1141V14.2063C0.856018 20.3846 0.856018 23.4741 2.77529 25.3934C4.69469 27.3127 7.78417 27.3127 13.9624 27.3127H15.0546C21.2329 27.3127 24.3224 27.3127 26.2417 25.3934C28.161 23.4741 28.161 20.3846 28.161 14.2063V13.1141C28.161 6.93579 28.161 3.8463 26.2417 1.92696C24.3224 0.00769055 21.2329 0.00769043 15.0546 0.00769043H13.9624C7.78411 0.00769043 4.69463 0.00769055 2.77529 1.92696ZM5.46374 8.31304H8.58108C8.68347 13.5237 10.9816 15.7309 12.802 16.186V8.31298H15.7372V12.8069C17.5348 12.6135 19.4234 10.5656 20.0605 8.31298H22.9958C22.7557 9.48125 22.2771 10.5874 21.5899 11.5623C20.9028 12.5372 20.022 13.3598 19.0024 13.9788C20.1408 14.5439 21.1462 15.3442 21.9523 16.3268C22.7584 17.3094 23.3467 18.4518 23.6784 19.6787H20.4474C20.1496 18.613 19.5438 17.659 18.7058 16.9364C17.8678 16.2138 16.8351 15.7549 15.7372 15.6171V19.6787H15.3845C9.16131 19.6787 5.61166 15.4123 5.46374 8.31298V8.31304Z" fill="white"/>
</svg>
