<svg width="26" height="26" viewBox="0 0 26 26" fill="none" xmlns="http://www.w3.org/2000/svg">
<path d="M0.481384 25.1602L2.27508 18.4967C0.828509 15.9009 0.36892 12.8719 0.980645 9.96545C1.59237 7.05899 3.23438 4.47004 5.60535 2.67368C7.97633 0.877323 10.9172 -0.00594263 13.8884 0.185962C16.8596 0.377867 19.6617 1.63207 21.7807 3.71842C23.8996 5.80478 25.1931 8.58333 25.424 11.5442C25.6548 14.5051 24.8074 17.4497 23.0373 19.8377C21.2672 22.2257 18.6931 23.8969 15.7874 24.5446C12.8816 25.1923 9.8392 24.7732 7.21833 23.364L0.481384 25.1602ZM7.54317 20.8705L7.95981 21.117C9.85817 22.2393 12.0754 22.7038 14.266 22.438C16.4566 22.1721 18.4976 21.191 20.0708 19.6474C21.644 18.1037 22.661 16.0844 22.9635 13.904C23.266 11.7237 22.8369 9.50471 21.743 7.593C20.6492 5.68128 18.9521 4.18418 16.9161 3.33499C14.8802 2.4858 12.6198 2.33223 10.4873 2.89821C8.35469 3.46419 6.46972 4.71793 5.12609 6.46404C3.78246 8.21016 3.05566 10.3506 3.05894 12.5517C3.05715 14.3768 3.56319 16.1666 4.52072 17.7219L4.78201 18.1516L3.77924 21.8707L7.54317 20.8705Z" fill="white"/>
<path fill-rule="evenodd" clip-rule="evenodd" d="M17.6554 14.2627C17.4112 14.0662 17.1252 13.9279 16.8193 13.8583C16.5133 13.7888 16.1955 13.7897 15.89 13.8612C15.431 14.0514 15.1344 14.7699 14.8378 15.1291C14.7752 15.2152 14.6833 15.2756 14.5793 15.299C14.4753 15.3223 14.3663 15.307 14.2729 15.2559C12.5924 14.5994 11.1838 13.3955 10.2759 11.8396C10.1984 11.7426 10.1618 11.6193 10.1736 11.4958C10.1855 11.3723 10.2449 11.2582 10.3394 11.1775C10.6702 10.8509 10.9131 10.4463 11.0456 10.0012C11.075 9.51027 10.9623 9.02124 10.7208 8.59245C10.5341 7.9913 10.1788 7.45602 9.69681 7.04985C9.44824 6.93834 9.17262 6.90095 8.90322 6.94219C8.63382 6.98344 8.38213 7.10156 8.17853 7.2823C7.82507 7.58648 7.54451 7.96587 7.35752 8.39254C7.17053 8.8192 7.08187 9.28227 7.09808 9.74763C7.09917 10.009 7.13237 10.2692 7.19694 10.5225C7.36092 11.131 7.6131 11.7124 7.94549 12.2482C8.18531 12.6587 8.44697 13.056 8.72935 13.4386C9.64706 14.6952 10.8006 15.7621 12.1261 16.5801C12.7912 16.9958 13.502 17.3338 14.2446 17.5874C15.016 17.9362 15.8676 18.0701 16.7092 17.9748C17.1886 17.9024 17.6429 17.7136 18.032 17.425C18.4212 17.1363 18.7332 16.7567 18.9407 16.3195C19.0626 16.0554 19.0996 15.7602 19.0466 15.4743C18.9195 14.8896 18.1356 14.5445 17.6554 14.2627Z" fill="white"/>
</svg>
