<svg width="26" height="26" viewBox="0 0 26 26" fill="none" xmlns="http://www.w3.org/2000/svg">
<path d="M0.625488 25.5L2.41918 18.8365C0.972613 16.2408 0.513024 13.2118 1.12475 10.3053C1.73647 7.39883 3.37848 4.80988 5.74946 3.01352C8.12043 1.21717 11.0613 0.333901 14.0325 0.525806C17.0037 0.717711 19.8058 1.97191 21.9248 4.05827C24.0437 6.14462 25.3372 8.92317 25.5681 11.8841C25.7989 14.8449 24.9515 17.7896 23.1814 20.1776C21.4113 22.5655 18.8372 24.2367 15.9315 24.8845C13.0257 25.5322 9.9833 25.113 7.36243 23.7038L0.625488 25.5ZM7.68727 21.2103L8.10392 21.4568C10.0023 22.5792 12.2195 23.0436 14.4101 22.7778C16.6007 22.512 18.6417 21.5308 20.2149 19.9872C21.7881 18.4436 22.8051 16.4243 23.1076 14.2439C23.4101 12.0635 22.981 9.84456 21.8871 7.93284C20.7933 6.02112 19.0962 4.52402 17.0602 3.67483C15.0243 2.82565 12.7639 2.67208 10.6314 3.23806C8.49879 3.80404 6.61382 5.05777 5.27019 6.80389C3.92657 8.55 3.19976 10.6904 3.20304 12.8916C3.20125 14.7167 3.70729 16.5065 4.66483 18.0617L4.92611 18.4914L3.92334 22.2105L7.68727 21.2103Z" fill="#666666"/>
<path fill-rule="evenodd" clip-rule="evenodd" d="M17.7995 14.6026C17.5553 14.4061 17.2693 14.2678 16.9634 14.1982C16.6574 14.1286 16.3396 14.1296 16.0341 14.2011C15.5751 14.3913 15.2785 15.1097 14.9819 15.469C14.9194 15.5551 14.8275 15.6155 14.7234 15.6388C14.6194 15.6622 14.5105 15.6468 14.417 15.5957C12.7365 14.9392 11.3279 13.7353 10.42 12.1795C10.3425 12.0824 10.3059 11.9591 10.3177 11.8356C10.3296 11.7121 10.389 11.598 10.4835 11.5174C10.8143 11.1907 11.0572 10.7861 11.1897 10.3411C11.2191 9.85011 11.1064 9.36108 10.8649 8.93229C10.6782 8.33114 10.3229 7.79586 9.84092 7.3897C9.59234 7.27818 9.31673 7.24079 9.04733 7.28204C8.77792 7.32328 8.52624 7.4414 8.32263 7.62214C7.96917 7.92632 7.68861 8.30572 7.50162 8.73238C7.31464 9.15904 7.22598 9.62211 7.24218 10.0875C7.24327 10.3488 7.27647 10.609 7.34105 10.8623C7.50503 11.4708 7.7572 12.0522 8.08959 12.588C8.32941 12.9985 8.59107 13.3959 8.87345 13.7784C9.79116 15.035 10.9447 16.102 12.2702 16.92C12.9353 17.3357 13.6461 17.6736 14.3887 17.9272C15.1601 18.276 16.0117 18.4099 16.8533 18.3147C17.3327 18.2423 17.787 18.0534 18.1761 17.7648C18.5653 17.4762 18.8773 17.0965 19.0848 16.6594C19.2067 16.3953 19.2437 16.1 19.1907 15.8141C19.0636 15.2295 18.2797 14.8843 17.7995 14.6026Z" fill="#666666"/>
</svg>
