<svg width="30" height="21" viewBox="0 0 30 21" fill="none" xmlns="http://www.w3.org/2000/svg">
<path fill-rule="evenodd" clip-rule="evenodd" d="M26.1376 1.56775C27.3663 1.89956 28.332 2.86774 28.6584 4.09502C29.2524 6.32229 29.2524 10.9723 29.2524 10.9723C29.2524 10.9723 29.2524 15.6223 28.6584 17.8496C28.3275 19.0814 27.3618 20.0496 26.1376 20.3768C23.916 20.9723 15.0024 20.9723 15.0024 20.9723C15.0024 20.9723 6.0933 20.9723 3.86716 20.3768C2.63848 20.045 1.67276 19.0768 1.34632 17.8496C0.75238 15.6223 0.75238 10.9723 0.75238 10.9723C0.75238 10.9723 0.75238 6.32229 1.34632 4.09502C1.67729 2.8632 2.64301 1.89502 3.86716 1.56775C6.0933 0.97229 15.0024 0.97229 15.0024 0.97229C15.0024 0.97229 23.916 0.97229 26.1376 1.56775ZM19.5589 10.9723L12.1551 15.2587V6.68593L19.5589 10.9723Z" fill="white"/>
</svg>
