<svg width="29" height="20" viewBox="0 0 29 20" fill="none" xmlns="http://www.w3.org/2000/svg">
<path fill-rule="evenodd" clip-rule="evenodd" d="M25.6777 0.595455C26.9064 0.927273 27.8721 1.89545 28.1985 3.12273C28.7925 5.35 28.7925 10 28.7925 10C28.7925 10 28.7925 14.65 28.1985 16.8773C27.8676 18.1091 26.9019 19.0773 25.6777 19.4045C23.4561 20 14.5425 20 14.5425 20C14.5425 20 5.6334 20 3.40726 19.4045C2.17858 19.0727 1.21286 18.1045 0.886419 16.8773C0.29248 14.65 0.29248 10 0.29248 10C0.29248 10 0.29248 5.35 0.886419 3.12273C1.21739 1.89091 2.18311 0.922728 3.40726 0.595455C5.6334 0 14.5425 0 14.5425 0C14.5425 0 23.4561 0 25.6777 0.595455ZM19.099 10L11.6952 14.2864V5.71364L19.099 10Z" fill="#666666"/>
</svg>
